<svg xmlns="http://www.w3.org/2000/svg" viewBox="0 0 500 500"><g id="freepik--Clipboard--inject-2"><rect x="136.89" y="52.01" width="228.6" height="324.47" rx="9.24" style="fill:#e0e0e0"></rect><path d="M356.26,376.48l.71-.05a9.89,9.89,0,0,0,2-.4,9.21,9.21,0,0,0,5.8-5.45,9.17,9.17,0,0,0,.6-2.8c.05-1,0-2.08,0-3.2,0-2.24,0-4.69,0-7.34,0-5.31,0-11.44,0-18.33,0-27.59,0-67.51-.07-116.83,0-24.66,0-51.68,0-80.68q0-21.75,0-44.94,0-11.59,0-23.51c0-4,0-8,0-12a9,9,0,0,0-7-8.52,12,12,0,0,0-3-.23H146.15a9.06,9.06,0,0,0-6.23,2.49,9,9,0,0,0-2.78,6.08c0,4.66,0,9.34,0,14V156.6c0,35.49,0,69.73,0,102.34s0,63.6,0,92.6q0,5.44,0,10.78c0,1.78,0,3.57,0,5.32a8.94,8.94,0,0,0,1.64,4.82,9.18,9.18,0,0,0,4,3.16,9.81,9.81,0,0,0,2.45.63c.84.07,1.7.05,2.56.06H196.6l116.82.07,31.76.05,8.26,0c1.87,0,2.82,0,2.82,0s-.95,0-2.82,0l-8.26,0-31.76.05-116.82.07H147.69c-.85,0-1.71,0-2.6,0a9.88,9.88,0,0,1-2.55-.66,9.39,9.39,0,0,1-5.81-8.29c0-1.78,0-3.54,0-5.33V351.54c0-29,0-60,0-92.6s0-66.85,0-102.34q0-26.62,0-54.13V74.78c0-4.65,0-9.3,0-14a9.47,9.47,0,0,1,9.46-9H355.26a13.47,13.47,0,0,1,3.09.24,9.41,9.41,0,0,1,7.33,8.9q0,6,0,12V96.46q0,23.16,0,44.94c0,29,0,56,0,80.68,0,49.32,0,89.24-.07,116.83,0,6.89,0,13,0,18.33,0,2.65,0,5.1,0,7.34,0,1.13,0,2.19,0,3.21a9,9,0,0,1-.62,2.82,9.39,9.39,0,0,1-2.81,3.84,9.86,9.86,0,0,1-3,1.63,10.38,10.38,0,0,1-2.07.38Z" style="fill:#263238"></path><g style="opacity:0.30000000000000004"><polygon points="156.84 369.15 348.7 369.15 346.59 329.24 346.59 308 156.84 337.65 156.84 369.15"></polygon></g><g style="opacity:0.30000000000000004"><polygon points="308.88 52.67 313.24 65.61 313.24 71.94 308.32 71.94 308.88 52.67"></polygon></g><polygon points="147.09 65.01 147.09 363.07 302.58 363.07 355.3 363.07 355.3 65.01 147.09 65.01" style="fill:#fff"></polygon><path d="M355.3,309.77s0-.38,0-1.14,0-1.9,0-3.39c0-3,0-7.42,0-13.19,0-11.56,0-28.47-.06-49.94,0-43,0-104.15-.08-177.1l.2.2-208.21,0,.22-.22v.27c0,114.58,0,219.21-.06,297.79l-.16-.17,113.67.08,31,0,8.07,0,2.76,0-2.76,0-8.07,0-31,0-113.67.07h-.17v-.16c0-78.58,0-183.21,0-297.79v-.49h.22l208.21,0h.19V65c0,73-.06,134.14-.08,177.1,0,21.47,0,38.38-.05,49.94,0,5.77,0,10.2,0,13.19,0,1.49,0,2.62,0,3.39S355.3,309.77,355.3,309.77Z" style="fill:#263238"></path><path d="M209.85,43.93h92.7a6.33,6.33,0,0,1,6.33,6.33V74.49a0,0,0,0,1,0,0H203.53a0,0,0,0,1,0,0V50.26A6.33,6.33,0,0,1,209.85,43.93Z" style="fill:#263238"></path><polygon points="269.61 32.44 242.8 32.44 245.93 55.42 266.13 55.42 269.61 32.44" style="fill:#263238"></polygon><path d="M302.11,43.93c0,.12-20.56.22-45.91.22s-45.9-.1-45.9-.22,20.55-.22,45.9-.22S302.11,43.81,302.11,43.93Z" style="fill:#455a64"></path><path d="M205.89,69.56c-.13,0-.23-4.32-.23-9.66s.1-9.65.23-9.65.22,4.32.22,9.65S206,69.56,205.89,69.56Z" style="fill:#455a64"></path><path d="M305.47,67.27a84.42,84.42,0,0,1-.22-8.76,84.7,84.7,0,0,1,.22-8.77c.12,0,.22,3.93.22,8.77S305.59,67.27,305.47,67.27Z" style="fill:#455a64"></path><path d="M300.39,71.34c0,.12-21.1.22-47.12.22s-47.13-.1-47.13-.22,21.09-.23,47.13-.23S300.39,71.21,300.39,71.34Z" style="fill:#455a64"></path><rect x="213.95" y="122.21" width="114.99" height="7.07" style="fill:#e0e0e0"></rect><rect x="213.95" y="136.65" width="52.17" height="7.02" style="fill:#e0e0e0"></rect><rect x="175.67" y="119.2" width="26.59" height="26.59" rx="3.86" style="fill:#00CC99"></rect><polygon points="188.58 138.82 181.13 133.07 183.14 130.47 188.13 134.33 195.23 126.16 197.71 128.31 188.58 138.82" style="fill:#fff"></polygon><rect x="213.95" y="165.98" width="114.99" height="7.07" style="fill:#e0e0e0"></rect><rect x="213.95" y="180.41" width="52.17" height="7.02" style="fill:#e0e0e0"></rect><rect x="175.67" y="162.96" width="26.59" height="26.59" rx="3.86" style="fill:#00CC99"></rect><polygon points="188.58 182.58 181.13 176.83 183.14 174.23 188.13 178.09 195.23 169.92 197.71 172.07 188.58 182.58" style="fill:#fff"></polygon><rect x="213.95" y="212.87" width="114.99" height="7.07" style="fill:#e0e0e0"></rect><rect x="213.95" y="227.3" width="52.17" height="7.02" style="fill:#e0e0e0"></rect><rect x="213.95" y="256.21" width="114.99" height="7.07" style="fill:#e0e0e0"></rect><rect x="213.95" y="270.65" width="52.17" height="7.02" style="fill:#e0e0e0"></rect><rect x="175.67" y="209.85" width="26.59" height="26.59" rx="3.86" style="fill:#00CC99"></rect><polygon points="188.58 229.47 181.13 223.72 183.14 221.12 188.13 224.98 195.23 216.81 197.71 218.96 188.58 229.47" style="fill:#fff"></polygon><path d="M198.77,281.46H179.15a3.94,3.94,0,0,1-3.94-3.93V257.91a3.94,3.94,0,0,1,3.94-3.93h19.62a3.93,3.93,0,0,1,3.93,3.93v19.62A3.93,3.93,0,0,1,198.77,281.46Zm-19.62-26.58a3,3,0,0,0-3,3v19.62a3,3,0,0,0,3,3h19.62a3,3,0,0,0,3-3V257.91a3,3,0,0,0-3-3Z" style="fill:#00CC99"></path><rect x="213.95" y="305.8" width="114.99" height="7.07" style="fill:#e0e0e0"></rect><rect x="213.95" y="320.24" width="52.17" height="7.02" style="fill:#e0e0e0"></rect><path d="M198.77,331.05H179.15a4,4,0,0,1-3.94-3.93V307.5a4,4,0,0,1,3.94-3.94h19.62a3.94,3.94,0,0,1,3.93,3.94v19.62A3.94,3.94,0,0,1,198.77,331.05Zm-19.62-26.59a3,3,0,0,0-3,3v19.62a3,3,0,0,0,3,3h19.62a3,3,0,0,0,3-3V307.5a3,3,0,0,0-3-3Z" style="fill:#00CC99"></path><rect x="200.11" y="94.85" width="114.64" height="9.82" style="fill:#00CC99"></rect></g></svg>
