<svg xmlns="http://www.w3.org/2000/svg" viewBox="0 0 500 500"><g id="freepik--background-simple--inject-30"><path d="M467.39,328.68c-20.65,41.64-57.28,84.81-101.84,93.11-67.33,12.54-82.62,68.54-197.48,47.88A216,216,0,0,1,119.17,455,185,185,0,0,1,96.81,443.3c-63.52-39-90-109.64-83.7-179.07C21.33,172.91,84.87,137.31,125.79,117S225.05,4.42,338.13,23.76A209.37,209.37,0,0,1,388.4,38.81c36.73,16.44,72.26,46.71,90,86.4q2,4.47,3.74,9.1C504.86,194.56,495.54,271.91,467.39,328.68Z" style="fill:#00CC99"></path><path d="M467.39,328.68c-20.65,41.64-57.28,84.81-101.84,93.11-67.33,12.54-82.62,68.54-197.48,47.88A216,216,0,0,1,119.17,455,185,185,0,0,1,96.81,443.3c-63.52-39-90-109.64-83.7-179.07C21.33,172.91,84.87,137.31,125.79,117S225.05,4.42,338.13,23.76A209.37,209.37,0,0,1,388.4,38.81c36.73,16.44,72.26,46.71,90,86.4q2,4.47,3.74,9.1C504.86,194.56,495.54,271.91,467.39,328.68Z" style="fill:#fff;opacity:0.7000000000000001"></path></g><g id="freepik--Plants--inject-30"><g style="opacity:0.2"><path d="M330.64,55.24c3,3.15,12,6.76,12,6.76s.57-6.67.55-7.09c-.21-4.94-3.53-14.36-8.86-15.82a6.55,6.55,0,0,0-8.06,5.49C325.62,48.43,328.1,52.55,330.64,55.24Z"></path><path d="M420.2,95.72c.06.08,4.16-5.25,4.38-5.61,2.54-4.24,5-13.92,1.33-18.09a6.55,6.55,0,0,0-9.75.14c-2.67,2.85-2.87,7.66-2.24,11.3C414.66,87.73,420.2,95.71,420.2,95.72Z"></path><path d="M460.68,74.7c-4.84-2.7-13.81,1.67-17.43,5-.31.29-4.68,5.4-4.58,5.44l.1,0c-1.42.68-2.93,1.43-4.57,2.27-3,1.59-6.42,3.42-10,5.65a116.1,116.1,0,0,0-11.14,7.75A84.87,84.87,0,0,0,402,111.24l-.12.14c.66-1.48,2.38-5.68,2.47-6,1.34-4.75,1.12-14.73-3.49-17.79a6.54,6.54,0,0,0-9.36,2.7c-1.82,3.46-.75,8.15.82,11.49,1.76,3.77,8.64,9.62,9.19,10.09a114.43,114.43,0,0,0-9.24,12.4c-1.65,2.52-3.23,5.1-4.78,7.72.53-1.3,1-2.47,1-2.64,1.34-4.75,1.12-14.73-3.49-17.79a6.54,6.54,0,0,0-9.36,2.7c-1.82,3.46-.75,8.15.82,11.5s7.35,8.49,8.89,9.82c-.58,1-1.18,2-1.76,3-2.79,4.85-5.55,9.7-8.4,14.38-1,1.65-2.05,3.23-3.1,4.83.47-1.16.86-2.13.9-2.29,1.34-4.76,1.12-14.74-3.49-17.8a6.55,6.55,0,0,0-9.36,2.71c-1.82,3.46-.75,8.15.82,11.49s6.79,8,8.62,9.59c-1.12,1.59-2.24,3.2-3.4,4.69-.81,1-1.52,2-2.4,3l-2.5,2.89c-1.66,1.78-3.37,3.62-5,5.31-1.15,1.19-2.26,2.3-3.38,3.42,1-1.63,2.94-4.86,3.07-5.15a25.44,25.44,0,0,0,1.72-12.72,8.24,8.24,0,0,0,.48-1.37A6.55,6.55,0,0,0,353,153.3c-5.48-.78-12.28,6.52-14.45,11-.12.27-1.19,3.26-1.84,5.17.21-1.18.43-2.32.63-3.53.41-2.4.75-4.8,1.12-7.39.14-1.25.28-2.52.42-3.8s.18-2.62.28-3.94c.16-3.08.17-6.2.11-9.35,2.1.35,9.57,1.51,13.16.58s7.88-3.08,9.38-6.69a6.54,6.54,0,0,0-3.88-8.94C352.6,124.76,344.77,131,342,135c-.17.25-1.87,3.39-2.76,5.14-.05-1.9-.09-3.78-.2-5.7-.32-5.52-.82-11.09-1.29-16.66-.15-1.71-.27-3.41-.4-5.11.74.14,9.6,1.7,13.62.66,3.57-.92,7.87-3.08,9.38-6.69a6.56,6.56,0,0,0-3.88-8.94c-5.3-1.6-13.13,4.59-15.94,8.65-.22.31-2.65,4.83-3.21,6-.28-3.75-.53-7.49-.63-11.18a115.15,115.15,0,0,1,.5-15c.34.06,9.57,1.73,13.69.67,3.58-.92,7.88-3.08,9.38-6.69a6.54,6.54,0,0,0-3.88-8.94c-5.29-1.61-13.12,4.59-15.94,8.65-.18.27-2,3.71-2.88,5.37l-.3-.09a83.6,83.6,0,0,1,3.2-14.7c.79-2.65,1.7-5.14,2.64-7.54,1.68.49,9.42,2.63,13.23,2.08s8.17-2.2,10.06-5.61a6.56,6.56,0,0,0-2.87-9.32c-5.09-2.18-13.55,3.12-16.8,6.85-.17.2-1.74,2.46-2.86,4.12.44-1.08.88-2.2,1.32-3.22,1.64-3.85,3.39-7.27,5-10.29.91-1.71,1.76-3.23,2.57-4.65,1.91-.39,9.57-2,12.65-4.24s6.23-5.71,6.33-9.62a6.54,6.54,0,0,0-6.84-6.94c-5.52.41-10.59,9-11.75,13.81-.1.42-.93,7.09-.82,7.07l.11,0c-.81,1.35-1.66,2.81-2.56,4.42-1.64,3-3.47,6.38-5.21,10.21a118.71,118.71,0,0,0-5,12.61A86.46,86.46,0,0,0,336,85a1.09,1.09,0,0,1,0,.18c-.27-1.6-1.16-6-1.26-6.38-1.51-4.71-7.2-12.92-12.73-12.92a6.54,6.54,0,0,0-6.32,7.42c.39,3.89,3.87,7.21,7,9.13,3.56,2.17,12.52,3.26,13.23,3.34a115.22,115.22,0,0,0-.86,15.45c0,3,.12,6,.27,9.07-.28-1.38-.53-2.61-.58-2.77-1.51-4.71-7.2-12.91-12.73-12.92A6.54,6.54,0,0,0,315.7,102c.39,3.89,3.87,7.21,7,9.13s10.82,3,12.84,3.29c.07,1.16.13,2.33.2,3.49.35,5.58.72,11.15.92,16.63.08,1.93.07,3.83.08,5.73-.24-1.22-.46-2.24-.51-2.4-1.51-4.7-7.19-12.91-12.73-12.92a6.54,6.54,0,0,0-6.31,7.43c.38,3.89,3.87,7.21,7,9.13s10.08,2.92,12.48,3.24c-.06,1.95-.11,3.9-.24,5.79-.13,1.28-.16,2.53-.35,3.82s-.34,2.53-.5,3.79c-.41,2.39-.81,4.87-1.26,7.2-.31,1.62-.63,3.16-.94,4.72-.05-1.93-.23-5.68-.28-6-.78-4.88-5.15-13.85-10.62-14.69a6.55,6.55,0,0,0-7.37,6.38c-.2,3.9,2.73,7.71,5.56,10.09,3.11,2.61,11.45,5,12.49,5.28-.53,2.57-1.07,5.06-1.62,7.4-1.87,8.05-3.73,14.7-5.11,19.35l3.45,1.47.09-.31c1.29-4.75,3-11.55,4.77-19.8.55-2.6,1.09-5.4,1.62-8.27a72.4,72.4,0,0,0,8.35-.31c1.41,3.93,6.68,10.08,7.36,10.87-1.86,1.84-3.69,3.62-5.44,5.28-6,5.68-11.22,10.19-14.93,13.32l3.78,1.61c3.56-3.16,8.2-7.4,13.43-12.58,1.9-1.87,3.89-3.9,5.91-6,.88.61,8,5.54,12,6.27,3.63.67,8.44.5,11.32-2.14a6.55,6.55,0,0,0,.22-9.75c-4.13-3.67-13.84-1.33-18.1,1.18-.25.14-2.79,2-4.38,3.29.82-.87,1.63-1.7,2.47-2.6,1.66-1.77,3.27-3.59,5-5.54l2.44-2.94c.84-1,1.6-2.09,2.41-3.14,1.83-2.48,3.57-5.08,5.26-7.73,1.55,1.45,7.15,6.54,10.65,7.75s8.27,1.77,11.52-.41a6.55,6.55,0,0,0,1.69-9.6c-3.53-4.26-13.47-3.41-18.06-1.58-.29.11-3.44,1.8-5.14,2.76,1-1.6,2-3.2,3-4.86,2.78-4.78,5.44-9.71,8.12-14.61q1.23-2.25,2.48-4.48c.55.52,7.07,6.71,11,8.07,3.48,1.2,8.26,1.77,11.51-.41a6.55,6.55,0,0,0,1.7-9.6c-3.54-4.26-13.48-3.41-18.07-1.58-.35.14-4.87,2.57-6,3.25,1.83-3.29,3.68-6.54,5.64-9.68a116.36,116.36,0,0,1,8.67-12.2c.25.25,7,6.74,11.05,8.13,3.49,1.2,8.27,1.77,11.51-.41a6.55,6.55,0,0,0,1.7-9.6c-3.53-4.26-13.48-3.41-18.07-1.58-.3.12-3.75,2-5.37,2.89l-.2-.25a84.88,84.88,0,0,1,10.78-10.49c2.13-1.77,4.26-3.35,6.36-4.83,1.14,1.33,6.41,7.39,9.89,9s8,2.67,11.49.86a6.55,6.55,0,0,0,2.74-9.35c-3-4.63-13-4.88-17.78-3.56-.26.07-2.82,1.1-4.66,1.86,1-.65,1.94-1.35,2.87-2,3.5-2.3,6.84-4.19,9.81-5.84,1.7-.92,3.26-1.73,4.72-2.46,1.8.73,9.1,3.58,12.88,3.44s8.35-1.33,10.59-4.53A6.54,6.54,0,0,0,460.68,74.7Z"></path></g><g style="opacity:0.2"><path d="M170.93,57.17c-3,3.16-12,6.76-12,6.77s-.57-6.67-.55-7.1c.21-4.94,3.53-14.35,8.87-15.82a6.55,6.55,0,0,1,8,5.49C175.94,50.36,173.46,54.49,170.93,57.17Z"></path><path d="M81.36,97.65c0,.09-4.15-5.24-4.37-5.61C74.44,87.8,72,78.12,75.66,74a6.55,6.55,0,0,1,9.74.14c2.67,2.86,2.88,7.66,2.25,11.3C86.91,89.66,81.37,97.65,81.36,97.65Z"></path><path d="M40.89,76.63c4.83-2.7,13.8,1.67,17.42,5,.31.29,4.68,5.4,4.59,5.44l-.11,0c1.42.67,2.94,1.42,4.58,2.27,3,1.59,6.41,3.41,10,5.64a119.32,119.32,0,0,1,11.15,7.75A86.87,86.87,0,0,1,99.6,113.17l.11.15c-.66-1.48-2.37-5.69-2.47-6-1.33-4.76-1.12-14.74,3.49-17.8a6.55,6.55,0,0,1,9.37,2.71c1.82,3.45.75,8.15-.82,11.49-1.77,3.77-8.65,9.62-9.2,10.08a116,116,0,0,1,9.25,12.41c1.64,2.51,3.22,5.1,4.78,7.71-.54-1.3-1-2.46-1-2.63-1.33-4.76-1.12-14.74,3.49-17.8a6.55,6.55,0,0,1,9.37,2.71c1.82,3.46.75,8.15-.82,11.49s-7.36,8.5-8.9,9.83c.59,1,1.18,2,1.76,3,2.79,4.85,5.55,9.7,8.4,14.37,1,1.65,2.06,3.24,3.1,4.83-.47-1.15-.85-2.13-.9-2.28-1.33-4.76-1.12-14.74,3.49-17.8a6.55,6.55,0,0,1,9.37,2.71c1.82,3.45.75,8.15-.82,11.49s-6.8,8-8.62,9.58c1.12,1.6,2.24,3.2,3.39,4.7.82,1,1.53,2,2.4,3l2.51,2.88c1.66,1.78,3.36,3.62,5,5.32,1.15,1.18,2.27,2.29,3.39,3.41-1-1.63-2.95-4.86-3.08-5.15a25.32,25.32,0,0,1-1.71-12.72,8.17,8.17,0,0,1-.49-1.36,6.55,6.55,0,0,1,5.19-8.25c5.48-.79,12.28,6.52,14.45,11,.13.26,1.2,3.26,1.84,5.16-.21-1.18-.42-2.31-.62-3.53-.41-2.39-.75-4.8-1.13-7.38-.13-1.26-.27-2.52-.41-3.8s-.18-2.63-.28-4c-.16-3.08-.17-6.2-.12-9.35-2.1.36-9.57,1.51-13.16.59s-7.87-3.09-9.38-6.69a6.56,6.56,0,0,1,3.88-8.95c5.3-1.6,13.13,4.59,15.94,8.65.18.26,1.87,3.4,2.77,5.14.05-1.89.08-3.78.2-5.69.32-5.52.81-11.1,1.29-16.67.14-1.7.26-3.4.4-5.11-.75.14-9.6,1.7-13.62.67-3.58-.92-7.88-3.09-9.38-6.69a6.54,6.54,0,0,1,3.88-8.94c5.29-1.61,13.12,4.58,15.94,8.64.21.31,2.64,4.83,3.2,6,.29-3.74.54-7.48.64-11.18a115.15,115.15,0,0,0-.5-14.95c-.35.06-9.58,1.74-13.7.68-3.57-.92-7.87-3.09-9.38-6.69a6.56,6.56,0,0,1,3.88-9c5.3-1.6,13.13,4.59,15.94,8.65.19.27,2,3.72,2.89,5.37l.3-.09a84.71,84.71,0,0,0-3.21-14.7c-.79-2.65-1.7-5.14-2.63-7.54-1.69.49-9.43,2.63-13.24,2.09-3.65-.52-8.16-2.2-10.06-5.62a6.55,6.55,0,0,1,2.88-9.31c5.09-2.18,13.55,3.11,16.79,6.84.18.2,1.74,2.46,2.86,4.12-.44-1.07-.87-2.19-1.31-3.22-1.65-3.84-3.4-7.27-5-10.28-.9-1.71-1.76-3.24-2.57-4.66-1.91-.39-9.57-2-12.64-4.23S130,34.92,129.92,31a6.56,6.56,0,0,1,6.84-6.95c5.52.41,10.59,9,11.75,13.82.1.41.93,7.09.83,7.07l-.12,0c.81,1.35,1.67,2.81,2.57,4.42,1.64,3,3.46,6.39,5.2,10.21a114,114,0,0,1,5,12.62,84.73,84.73,0,0,1,3.56,14.76c0,.06,0,.12,0,.18.26-1.6,1.15-6.05,1.26-6.38C168.36,76,174,67.83,179.58,67.82a6.56,6.56,0,0,1,6.32,7.43c-.39,3.88-3.88,7.21-7,9.13-3.55,2.16-12.51,3.25-13.23,3.33a115.21,115.21,0,0,1,.87,15.45c0,3-.13,6-.27,9.07.27-1.37.53-2.6.58-2.77,1.51-4.71,7.19-12.91,12.73-12.92a6.56,6.56,0,0,1,6.32,7.43c-.39,3.88-3.88,7.21-7,9.13s-10.82,3-12.84,3.29c-.07,1.16-.12,2.32-.2,3.49-.35,5.58-.72,11.15-.92,16.62-.07,1.93-.07,3.83-.08,5.74.25-1.22.46-2.25.51-2.4,1.51-4.71,7.2-12.92,12.73-12.92a6.54,6.54,0,0,1,6.32,7.42c-.39,3.89-3.87,7.21-7,9.13s-10.08,2.92-12.48,3.24c0,1.95.1,3.9.24,5.79.12,1.29.15,2.53.35,3.82s.33,2.54.5,3.79c.4,2.4.8,4.87,1.26,7.2.3,1.63.62,3.17.94,4.72,0-1.92.22-5.68.27-6,.78-4.88,5.16-13.85,10.63-14.7a6.54,6.54,0,0,1,7.36,6.38c.21,3.9-2.73,7.71-5.55,10.09-3.11,2.62-11.46,5-12.5,5.28.53,2.57,1.08,5.06,1.63,7.4,1.87,8.06,3.73,14.7,5.11,19.36l-3.46,1.47c0-.11,0-.21-.08-.32-1.29-4.74-3.05-11.55-4.78-19.8-.55-2.6-1.09-5.4-1.61-8.27a70.2,70.2,0,0,1-8.36-.31c-1.4,3.93-6.67,10.08-7.36,10.87,1.86,1.85,3.69,3.63,5.44,5.28,6,5.68,11.22,10.2,14.94,13.32L166,203.7c-3.55-3.15-8.19-7.4-13.43-12.57-1.89-1.87-3.89-3.91-5.91-6-.87.6-8,5.54-12,6.27-3.64.66-8.45.49-11.32-2.15a6.54,6.54,0,0,1-.23-9.74c4.14-3.68,13.84-1.34,18.1,1.17.25.15,2.8,2.06,4.38,3.29-.82-.87-1.63-1.7-2.46-2.6-1.67-1.77-3.28-3.59-5-5.54l-2.44-2.94c-.84-1-1.6-2.09-2.41-3.14-1.83-2.47-3.56-5.07-5.25-7.73-1.56,1.46-7.15,6.54-10.66,7.75s-8.27,1.77-11.51-.41a6.54,6.54,0,0,1-1.7-9.59c3.53-4.27,13.48-3.42,18.07-1.59.28.12,3.43,1.81,5.14,2.77-1-1.61-2-3.21-3-4.86-2.77-4.78-5.44-9.71-8.11-14.61-.82-1.51-1.66-3-2.49-4.49-.54.53-7.07,6.71-11,8.07-3.49,1.21-8.27,1.77-11.52-.4a6.55,6.55,0,0,1-1.69-9.6c3.53-4.27,13.48-3.42,18.06-1.58.35.13,4.87,2.57,6,3.24-1.83-3.28-3.68-6.54-5.64-9.67a112.83,112.83,0,0,0-8.66-12.2c-.26.24-7,6.73-11,8.12-3.49,1.2-8.27,1.77-11.52-.41A6.54,6.54,0,0,1,75.07,113c3.53-4.27,13.47-3.42,18.06-1.59.3.12,3.75,2,5.37,2.89l.2-.24a84.32,84.32,0,0,0-10.78-10.5c-2.12-1.77-4.25-3.34-6.36-4.83-1.14,1.34-6.41,7.39-9.89,9-3.33,1.59-8,2.67-11.48.87a6.55,6.55,0,0,1-2.75-9.36c3.05-4.62,13-4.87,17.79-3.55.26.07,2.81,1.09,4.66,1.86-1-.66-1.94-1.35-2.87-2-3.5-2.3-6.84-4.19-9.82-5.85C65.5,88.82,64,88,62.48,87.28c-1.8.73-9.1,3.58-12.88,3.45S41.25,89.4,39,86.2A6.56,6.56,0,0,1,40.89,76.63Z"></path></g></g><g id="freepik--Clock--inject-30"><circle cx="72.32" cy="200.59" r="33.85" style="fill:none;stroke:#263238;stroke-linecap:round;stroke-linejoin:round"></circle><circle cx="72.32" cy="200.59" r="29.94" transform="translate(-43.69 21.69) rotate(-13.14)" style="fill:none;stroke:#263238;stroke-linecap:round;stroke-linejoin:round"></circle><circle cx="72.32" cy="200.59" r="2.86" style="fill:#263238;stroke:#263238;stroke-linecap:round;stroke-linejoin:round"></circle><polyline points="82.74 205.69 72.32 200.59 54.95 219.58" style="fill:none;stroke:#263238;stroke-linecap:round;stroke-linejoin:round"></polyline></g><g id="freepik--Clipboard--inject-30"><rect x="129.35" y="72.85" width="253.59" height="375.49" rx="6.08" style="fill:#263238;stroke:#263238;stroke-linecap:round;stroke-linejoin:round"></rect><rect x="142.24" y="81.32" width="227.82" height="352.55" style="fill:#fff;stroke:#263238;stroke-linecap:round;stroke-linejoin:round"></rect><line x1="287.96" y1="172.78" x2="305.65" y2="172.78" style="fill:none;stroke:#263238;stroke-miterlimit:10"></line><line x1="165.27" y1="172.78" x2="274.26" y2="172.78" style="fill:none;stroke:#263238;stroke-miterlimit:10"></line><line x1="261.71" y1="186.48" x2="305.65" y2="186.48" style="fill:none;stroke:#263238;stroke-miterlimit:10"></line><line x1="194.37" y1="186.48" x2="249.73" y2="186.48" style="fill:none;stroke:#263238;stroke-miterlimit:10"></line><line x1="165.27" y1="186.48" x2="184.1" y2="186.48" style="fill:none;stroke:#263238;stroke-miterlimit:10"></line><line x1="220.05" y1="200.17" x2="305.65" y2="200.17" style="fill:none;stroke:#263238;stroke-miterlimit:10"></line><line x1="165.27" y1="200.17" x2="201.22" y2="200.17" style="fill:none;stroke:#263238;stroke-miterlimit:10"></line><circle cx="341.17" cy="185.34" r="14.84" transform="translate(-33.61 83.91) rotate(-13.37)" style="fill:none;stroke:#263238;stroke-miterlimit:10"></circle><line x1="182.96" y1="233.84" x2="165.27" y2="233.84" style="fill:none;stroke:#263238;stroke-miterlimit:10"></line><line x1="305.65" y1="233.84" x2="196.66" y2="233.84" style="fill:none;stroke:#263238;stroke-miterlimit:10"></line><line x1="209.21" y1="247.54" x2="165.27" y2="247.54" style="fill:none;stroke:#263238;stroke-miterlimit:10"></line><line x1="276.55" y1="247.54" x2="221.19" y2="247.54" style="fill:none;stroke:#263238;stroke-miterlimit:10"></line><line x1="305.65" y1="247.54" x2="286.82" y2="247.54" style="fill:none;stroke:#263238;stroke-miterlimit:10"></line><line x1="250.87" y1="261.23" x2="165.27" y2="261.23" style="fill:none;stroke:#263238;stroke-miterlimit:10"></line><line x1="305.65" y1="261.23" x2="269.7" y2="261.23" style="fill:none;stroke:#263238;stroke-miterlimit:10"></line><circle cx="341.17" cy="246.39" r="14.84" transform="translate(-47.73 85.56) rotate(-13.37)" style="fill:none;stroke:#263238;stroke-miterlimit:10"></circle><line x1="287.96" y1="294.9" x2="305.65" y2="294.9" style="fill:none;stroke:#263238;stroke-miterlimit:10"></line><line x1="165.27" y1="294.9" x2="274.26" y2="294.9" style="fill:none;stroke:#263238;stroke-miterlimit:10"></line><line x1="261.71" y1="308.6" x2="305.65" y2="308.6" style="fill:none;stroke:#263238;stroke-miterlimit:10"></line><line x1="194.37" y1="308.6" x2="249.73" y2="308.6" style="fill:none;stroke:#263238;stroke-miterlimit:10"></line><line x1="165.27" y1="308.6" x2="184.1" y2="308.6" style="fill:none;stroke:#263238;stroke-miterlimit:10"></line><line x1="220.05" y1="322.29" x2="305.65" y2="322.29" style="fill:none;stroke:#263238;stroke-miterlimit:10"></line><line x1="165.27" y1="322.29" x2="201.22" y2="322.29" style="fill:none;stroke:#263238;stroke-miterlimit:10"></line><circle cx="341.17" cy="307.45" r="14.84" transform="translate(-117.48 331.29) rotate(-45)" style="fill:none;stroke:#263238;stroke-miterlimit:10"></circle><path d="M275.33,43.28a1.94,1.94,0,0,1-1.94-1.94V30.44a4.12,4.12,0,0,0-4.12-4.12H251.7a4.12,4.12,0,0,0-4.13,4.12v10.9a1.93,1.93,0,0,1-1.93,1.94h0a1.93,1.93,0,0,0-1.94,1.93V74.74h33.56V45.21A1.93,1.93,0,0,0,275.33,43.28Zm-14.85-1a5.41,5.41,0,1,1,5.42-5.41A5.41,5.41,0,0,1,260.48,42.26Z" style="fill:#263238;stroke:#263238;stroke-linecap:round;stroke-linejoin:round"></path><path d="M216.73,65.35h87.51A8.65,8.65,0,0,1,312.88,74v9.95a0,0,0,0,1,0,0H208.08a0,0,0,0,1,0,0V74A8.65,8.65,0,0,1,216.73,65.35Z" style="fill:#fff;stroke:#263238;stroke-linecap:round;stroke-linejoin:round"></path><path d="M210.68,68.57h99.61A9.85,9.85,0,0,0,303,65.35H218A9.83,9.83,0,0,0,210.68,68.57Z" style="fill:#263238;stroke:#263238;stroke-linecap:round;stroke-linejoin:round"></path><rect x="208.08" y="83.86" width="104.8" height="6.11" style="fill:#fff;stroke:#263238;stroke-linecap:round;stroke-linejoin:round"></rect><polyline points="335.51 243.94 339.54 251.1 354.78 236.32" style="fill:none;stroke:#00CC99;stroke-linecap:round;stroke-miterlimit:10;stroke-width:6px"></polyline><polyline points="335.51 182.23 339.54 189.4 354.78 174.61" style="fill:none;stroke:#00CC99;stroke-linecap:round;stroke-miterlimit:10;stroke-width:6px"></polyline><line x1="287.96" y1="112.42" x2="305.65" y2="112.42" style="fill:none;stroke:#263238;stroke-miterlimit:10"></line><line x1="165.27" y1="112.42" x2="274.26" y2="112.42" style="fill:none;stroke:#263238;stroke-miterlimit:10"></line><line x1="261.71" y1="126.11" x2="305.65" y2="126.11" style="fill:none;stroke:#263238;stroke-miterlimit:10"></line><line x1="194.37" y1="126.11" x2="249.73" y2="126.11" style="fill:none;stroke:#263238;stroke-miterlimit:10"></line><line x1="165.27" y1="126.11" x2="184.1" y2="126.11" style="fill:none;stroke:#263238;stroke-miterlimit:10"></line><line x1="220.05" y1="139.81" x2="305.65" y2="139.81" style="fill:none;stroke:#263238;stroke-miterlimit:10"></line><line x1="165.27" y1="139.81" x2="201.22" y2="139.81" style="fill:none;stroke:#263238;stroke-miterlimit:10"></line><circle cx="341.17" cy="124.97" r="14.84" transform="translate(11.56 277.84) rotate(-45)" style="fill:none;stroke:#263238;stroke-miterlimit:10"></circle><polyline points="335.51 121.87 339.54 129.04 354.78 114.25" style="fill:none;stroke:#00CC99;stroke-linecap:round;stroke-miterlimit:10;stroke-width:6px"></polyline><polyline points="333.38 302.16 337.41 309.33 352.64 294.54" style="fill:none;stroke:#00CC99;stroke-linecap:round;stroke-miterlimit:10;stroke-width:6px"></polyline></g></svg>
