<svg xmlns="http://www.w3.org/2000/svg" viewBox="0 0 500 500"><g id="freepik--Device--inject-2"><rect x="62.84" y="117.78" width="374.31" height="250.43" rx="12.89" transform="translate(493 -7) rotate(90)" style="fill:#263238"></rect><rect x="135.64" y="82.04" width="229.01" height="322.14" style="fill:#fff"></rect><rect x="248.05" y="43.8" width="3.89" height="54.5" rx="1.25" transform="translate(321.04 -178.95) rotate(90)" style="fill:#37474f"></rect><circle cx="250" cy="416.84" r="7.05" style="fill:#37474f"></circle><rect x="135.64" y="82.04" width="229.01" height="322.14" style="fill:#fff"></rect><rect x="135.64" y="82.04" width="229.01" height="83.55" style="fill:#00CC99"></rect><g id="freepik--u5Zjqx--inject-2"><path d="M334.85,92.25c-.13.12-.25.24-.37.37l-.21.2a5,5,0,0,0-7.06,0l-.2-.21-.36-.36h0l0,0c.15-.14.3-.28.46-.41a5.7,5.7,0,0,1,1.07-.68,5.53,5.53,0,0,1,1.42-.48c.23,0,.47-.06.71-.09H331l.48,0a5.82,5.82,0,0,1,1.31.31,5.91,5.91,0,0,1,.88.42,5.45,5.45,0,0,1,.84.58l.39.35Z" style="fill:#fff"></path><path d="M328.37,94c-.19-.2-.38-.39-.58-.58a4,4,0,0,1,2.36-1.18,4.12,4.12,0,0,1,3.54,1.17l-.58.58a3.34,3.34,0,0,0-4.74,0Z" style="fill:#fff"></path><path d="M332.53,94.55l-.58.58a1.71,1.71,0,0,0-2.42,0l-.58-.57A2.52,2.52,0,0,1,332.53,94.55Z" style="fill:#fff"></path><path d="M331.26,95.65a.52.52,0,1,1-.52-.52A.52.52,0,0,1,331.26,95.65Z" style="fill:#fff"></path></g><path d="M351.7,96.65H339.42V91H351.7ZM340,96h11V91.59H340Z" style="fill:#fff"></path><rect x="340.44" y="91.93" width="7.92" height="3.76" style="fill:#fff"></rect><rect x="351.71" y="92.29" width="1.09" height="3.04" style="fill:#fff"></rect><rect x="199.64" y="208.81" width="82.08" height="11.75" style="fill:#00CC99"></rect><rect x="288.62" y="208.81" width="11.75" height="11.75" style="fill:#dbdbdb"></rect><path d="M292.13,214.68a.73.73,0,1,1-.73-.73A.73.73,0,0,1,292.13,214.68Z" style="fill:#263238"></path><path d="M295.22,214.68a.73.73,0,1,1-.73-.73A.73.73,0,0,1,295.22,214.68Z" style="fill:#263238"></path><path d="M298.31,214.68a.73.73,0,1,1-.73-.73A.73.73,0,0,1,298.31,214.68Z" style="fill:#263238"></path><polygon points="152.56 114.09 147.2 109.07 152.56 104.05 153.39 104.93 148.98 109.07 153.39 113.2 152.56 114.09" style="fill:#fff"></polygon><path d="M352.8,105.94a1.06,1.06,0,1,1-2.11,0,1.06,1.06,0,0,1,2.11,0Z" style="fill:#fff"></path><path d="M352.8,109.69a1.06,1.06,0,1,1-2.11,0,1.06,1.06,0,0,1,2.11,0Z" style="fill:#fff"></path><path d="M352.8,113.44a1.06,1.06,0,1,1-2.11,0,1.06,1.06,0,0,1,2.11,0Z" style="fill:#fff"></path><rect x="186.47" y="103.08" width="127.06" height="12.39" style="opacity:0.1"></rect><path d="M235.22,112l-1,.76-1.86-2.45-.67-.89a1.63,1.63,0,0,0,.38-.22,1.61,1.61,0,0,0,.52-.67l.72,1Z" style="fill:#fff"></path><path d="M233.25,106.26a2.73,2.73,0,1,0-.89,4.07,2.66,2.66,0,0,0,.95-.83A2.72,2.72,0,0,0,233.25,106.26Zm-1.18,3a1.63,1.63,0,0,1-.38.22,1.64,1.64,0,0,1-1.6-2.82,1.64,1.64,0,0,1,2.29.31,1.63,1.63,0,0,1-.31,2.29Z" style="fill:#fff"></path><path d="M240.37,110.58a.5.5,0,0,1,.69-.06,3,3,0,0,0,1.8.72,2,2,0,0,0,1.17-.35.85.85,0,0,0,.41-.67.54.54,0,0,0-.09-.31,1.05,1.05,0,0,0-.28-.28,3.62,3.62,0,0,0-1.29-.44h0a4.89,4.89,0,0,1-1.21-.37,2,2,0,0,1-.88-.73,1.46,1.46,0,0,1-.21-.77,1.74,1.74,0,0,1,.75-1.37,2.79,2.79,0,0,1,1.63-.5,3.7,3.7,0,0,1,2,.75.49.49,0,0,1,.13.67.48.48,0,0,1-.67.14,2.72,2.72,0,0,0-1.51-.6,1.8,1.8,0,0,0-1.06.32.73.73,0,0,0-.35.59.5.5,0,0,0,.06.26.89.89,0,0,0,.26.25,3.08,3.08,0,0,0,1.17.41h0a5.36,5.36,0,0,1,1.3.4,2.18,2.18,0,0,1,.94.78,1.5,1.5,0,0,1,.22.8,1.8,1.8,0,0,1-.8,1.45,3,3,0,0,1-1.74.54,4.06,4.06,0,0,1-2.41-.94A.5.5,0,0,1,240.37,110.58Z" style="fill:#fff"></path><path d="M246.42,109.87a2.32,2.32,0,0,1,2.29-2.35A2.25,2.25,0,0,1,251,109.7v0a.25.25,0,0,1,0,.08.46.46,0,0,1-.49.38h-3a1.28,1.28,0,0,0,.32.62,1.49,1.49,0,0,0,.9.42,1.57,1.57,0,0,0,1-.23.54.54,0,0,1,.71,0,.44.44,0,0,1,0,.61,2.4,2.4,0,0,1-1.69.62A2.33,2.33,0,0,1,246.42,109.87Zm1-.46h2.66a1.53,1.53,0,0,0-1.39-1A1.32,1.32,0,0,0,247.44,109.41Z" style="fill:#fff"></path><path d="M256.45,109.88v1.84a.51.51,0,0,1-.5.5.52.52,0,0,1-.49-.41,2.08,2.08,0,0,1-1.25.41,2.17,2.17,0,0,1-1.6-.69,2.46,2.46,0,0,1,0-3.31,2.18,2.18,0,0,1,1.6-.7,2.15,2.15,0,0,1,1.25.41.52.52,0,0,1,.49-.41.5.5,0,0,1,.5.5Zm-1,0a1.39,1.39,0,0,0-.36-1,1.16,1.16,0,0,0-.88-.39,1.1,1.1,0,0,0-.87.39,1.35,1.35,0,0,0-.36,1,1.42,1.42,0,0,0,.36,1,1.18,1.18,0,0,0,.87.36,1.25,1.25,0,0,0,.88-.36A1.46,1.46,0,0,0,255.45,109.88Z" style="fill:#fff"></path><path d="M261.19,108a.5.5,0,0,1-.5.49.89.89,0,0,0-.56.18,1.71,1.71,0,0,0-.44.45,2.8,2.8,0,0,0-.38.79v1.79a.52.52,0,0,1-.52.5.51.51,0,0,1-.5-.5V108a.49.49,0,0,1,.5-.49.5.5,0,0,1,.52.49v.06a1.7,1.7,0,0,1,.19-.19,2.15,2.15,0,0,1,1.19-.36A.49.49,0,0,1,261.19,108Z" style="fill:#fff"></path><path d="M261.85,109.88a2.4,2.4,0,0,1,2.39-2.36,2.49,2.49,0,0,1,1.5.51.53.53,0,0,1,.1.7.49.49,0,0,1-.7.09,1.59,1.59,0,0,0-.9-.3,1.35,1.35,0,1,0,0,2.7,1.54,1.54,0,0,0,.9-.3.51.51,0,0,1,.7.1.53.53,0,0,1-.1.7,2.62,2.62,0,0,1-1.5.5A2.39,2.39,0,0,1,261.85,109.88Z" style="fill:#fff"></path><path d="M268.6,111.7a.52.52,0,0,1-.53.52.53.53,0,0,1-.5-.39.44.44,0,0,1,0-.13v-5.55a.53.53,0,0,1,1.05,0v1.64a2.13,2.13,0,0,1,1-.27,2.05,2.05,0,0,1,2,2.06v2.12a.52.52,0,1,1-1,0v-2.12a1,1,0,1,0-2,0Z" style="fill:#fff"></path><path d="M166.55,251.31a7.11,7.11,0,0,1-2.1.87,7.28,7.28,0,0,1-8.81-5.34,7.29,7.29,0,1,1,10.91,4.47Z" style="fill:#dbdbdb"></path><path d="M164.94,244.27a2.22,2.22,0,1,1-2.22-2.22A2.22,2.22,0,0,1,164.94,244.27Z" style="fill:#fff"></path><path d="M166.55,250.39v.92a7.11,7.11,0,0,1-2.1.87,7.22,7.22,0,0,1-5.57-.88v-.91a3.84,3.84,0,0,1,7.67,0Z" style="fill:#fff"></path><path d="M341.55,240.33a.49.49,0,0,1,.48.48.48.48,0,0,1-.48.48.47.47,0,0,1-.48-.48A.48.48,0,0,1,341.55,240.33Z"></path><path d="M343,240.33a.49.49,0,0,1,.48.48.48.48,0,0,1-.48.48.47.47,0,0,1-.48-.48A.48.48,0,0,1,343,240.33Z"></path><path d="M344.53,240.33a.49.49,0,0,1,.48.48.48.48,0,0,1-.48.48.47.47,0,0,1-.48-.48A.48.48,0,0,1,344.53,240.33Z"></path><polygon points="156.3 260.47 179.97 260.25 199.55 260.12 238.7 260.01 257.35 260.12 276.93 260.25 296.51 260.47 276.93 260.69 257.35 260.82 238.7 260.92 199.55 260.82 179.97 260.69 156.3 260.47" style="fill:#263238"></polygon><path d="M156.3,264.62c11-.19,26.87-.28,37.92-.35l33.15-.11,33.16.11,9.29.35-9.29.35-33.16.1-33.15-.1C183.17,264.89,167.35,264.81,156.3,264.62Z" style="fill:#263238"></path><path d="M156.3,269.41c12-.19,29.28-.27,41.33-.35l36.13-.1,36.12.1,10.13.35-10.13.35-36.12.1-36.13-.1C185.58,269.69,168.34,269.6,156.3,269.41Z" style="fill:#263238"></path><rect x="176.11" y="239.53" width="43.89" height="4.75" style="fill:#455a64"></rect><rect x="176.11" y="246.64" width="35.03" height="2.87" style="fill:#dbdbdb"></rect><path d="M166.55,298.14a7.41,7.41,0,0,1-2.1.88,7.29,7.29,0,1,1,2.1-.88Z" style="fill:#dbdbdb"></path><path d="M164.94,291.11a2.22,2.22,0,1,1-2.22-2.22A2.22,2.22,0,0,1,164.94,291.11Z" style="fill:#fff"></path><path d="M166.55,297.23v.91a7.41,7.41,0,0,1-2.1.88,7.3,7.3,0,0,1-5.57-.88v-.91a3.84,3.84,0,1,1,7.67,0Z" style="fill:#fff"></path><path d="M341.55,287.16a.49.49,0,0,1,.48.49.48.48,0,0,1-.48.47.47.47,0,0,1-.48-.47A.48.48,0,0,1,341.55,287.16Z"></path><path d="M343,287.16a.49.49,0,0,1,.48.49.48.48,0,0,1-.48.47.47.47,0,0,1-.48-.47A.48.48,0,0,1,343,287.16Z"></path><path d="M344.53,287.16a.49.49,0,0,1,.48.49.48.48,0,0,1-.48.47.47.47,0,0,1-.48-.47A.48.48,0,0,1,344.53,287.16Z"></path><rect x="155.43" y="308.47" width="189.21" height="65.33" transform="translate(500.07 682.27) rotate(180)" style="fill:#00CC99"></rect><path d="M173.92,327.28a8.54,8.54,0,1,0,6.71-6.7A8.55,8.55,0,0,0,173.92,327.28Z" style="opacity:0.2"></path><polygon points="238.23 362.12 344.64 362.12 291.44 322.94 238.23 362.12" style="opacity:0.2"></polygon><polygon points="197.41 362.15 285.26 362.15 241.33 333.14 197.41 362.15" style="fill:#00CC99"></polygon><polygon points="197.41 362.15 285.26 362.15 241.33 333.14 197.41 362.15" style="opacity:0.30000000000000004"></polygon><rect x="155.43" y="362.12" width="189.21" height="11.68" style="fill:#00CC99"></rect><rect x="155.43" y="362.12" width="189.21" height="11.68" style="opacity:0.30000000000000004"></rect><rect x="176.11" y="286.95" width="43.89" height="4.75" style="fill:#455a64"></rect><rect x="176.11" y="294.06" width="35.03" height="2.87" style="fill:#dbdbdb"></rect></g><g id="freepik--character-2--inject-2"><path d="M269.92,197.61a36.88,36.88,0,0,1-10.85,4.55,37.67,37.67,0,1,1,10.85-4.55Z" style="fill:#a6a6a6"></path><path d="M278.23,189a.45.45,0,0,1-.39.48H276c-1.42-4.69-3-8.45-2.62-7a25.11,25.11,0,0,1,.82,7l-3.63-.05c-1-8.17-2.58-14.27-2.55-12.42.1,7.48-.43,9.85-1,12.37-8.76-.14-20.24-.47-28.53-.9-.75-4.52-1.35-9.4-1.51-9.07-1.25,2.44-1.74,6.08-1.9,8.89-2.64-.15-4.75-.33-6-.51,0,0-.43-3.79-.46-5a27.29,27.29,0,0,1,1.38-9.33,47.58,47.58,0,0,1,4.25-8.47l0,0s0,0,0,0a27.12,27.12,0,0,0,2.49-5.67l0,0a27.54,27.54,0,0,0,.9-4.43c.65-5.48,3.78-10,8.68-11.19,9.57-8.6,18.53-4.12,20.94,3.12.24.71.46,1.51.67,2.39v0c.78,3.24,1.42,7.43,2,10.67,0,0,0,0,0,0a.08.08,0,0,0,0,0h0a32.68,32.68,0,0,0,.91,3.76C272.91,169.54,278,173.15,278.23,189Z" style="fill:#263238"></path><path d="M244.14,145a10.14,10.14,0,0,0-6,8,28.24,28.24,0,0,1-1.61,6.76,23.72,23.72,0,0,1-3.94,5.78,18.16,18.16,0,0,0-4.63,9.61,32.41,32.41,0,0,0,.48,12.54,0,0,0,0,0,0,0,34.29,34.29,0,0,1,.21-13c.9-4.31,3.34-6.9,5.86-10.06a18.59,18.59,0,0,0,3.89-8.68c.34-2,.41-4,1.25-5.86a11.18,11.18,0,0,1,4.66-4.63C244.59,145.25,244.39,144.86,244.14,145Z" style="fill:#263238"></path><path d="M275.9,170.15c-2.08-3.27-4.29-6.09-5.41-10.05-1-3.61-1.52-7.38-2.57-11,0-.06-.1,0-.08,0,1.57,6.39,1.63,12.73,5.15,18.25,1.91,3,3.83,5.78,5,9.3a33,33,0,0,1,1.57,11.46c0,.14.17.15.18,0A26.9,26.9,0,0,0,275.9,170.15Z" style="fill:#263238"></path><path d="M273.47,195.11c-.65.53-1.32,1-2,1.49-.5.35-1,.69-1.54,1l-.1.06c-.49.31-1,.6-1.51.88l-.67.37A35.86,35.86,0,0,1,263,201q-.56.21-1.14.39c-.89.29-1.81.55-2.74.78l-.75.17c-.14-.27-.29-.53-.42-.79a2.79,2.79,0,0,1-.18-.34c-.34-.63-.67-1.24-1-1.83a3.79,3.79,0,0,1-.18-.34c-.33-.63-.64-1.24-.93-1.82-.06-.11-.12-.22-.17-.33-.33-.65-.63-1.27-.91-1.85-.06-.11-.11-.22-.16-.33q-.47-1-.84-1.83c-.05-.11-.1-.22-.14-.33l0-.11c-.21-.49-.45-1.07-.7-1.73,0-.11-.09-.23-.14-.35-.16-.4-.32-.83-.47-1.28-.07-.18-.14-.36-.2-.55l-.12-.34c-.2-.6-.41-1.22-.6-1.85,0-.11-.06-.22-.1-.34-.18-.62-.35-1.24-.49-1.85,0-.11-.06-.22-.08-.33l0-.13a16.29,16.29,0,0,1-.32-1.73,2,2,0,0,1-.05-.34,9.35,9.35,0,0,1-.11-1.86,1.88,1.88,0,0,1,0-.34,3.26,3.26,0,0,1,.63-1.91,1.82,1.82,0,0,1,.38-.35h0l.17-.08s0,0,0,0l.19-.08h.06l0,0h.05a3.27,3.27,0,0,1,1.35,0l.36.1a4.35,4.35,0,0,1,.51.17h0a14.44,14.44,0,0,1,2.75,1.46c.51.32,1.06.69,1.64,1.12a82.68,82.68,0,0,1,9.06,8.59C269.25,190.52,271.38,192.82,273.47,195.11Z" style="fill: rgb(247, 169, 160);"></path><path d="M274.66,194.15c-.39.33-.78.65-1.19,1-.65.53-1.32,1-2,1.49-.5.35-1,.69-1.54,1l-.1.06c-.49.31-1,.6-1.51.88l-.67.37A35.86,35.86,0,0,1,263,201q-.56.21-1.14.39c-.89.29-1.81.55-2.74.78l-.75.17-.66.14c-.16-.3-.31-.6-.46-.9h0a2.1,2.1,0,0,0-.15-.3h0l0,0-.43-.87-.48-1c-.06-.11-.11-.22-.16-.33h0c-.3-.62-.6-1.23-.88-1.83h0l-.15-.33h0s0,0,0,0l-.79-1.67a.94.94,0,0,1-.06-.15h0l-.15-.33c-.29-.63-.57-1.24-.83-1.83l-.15-.33-.3-.67-.49-1.17h0c0-.11-.09-.23-.14-.34-.15-.36-.29-.7-.42-1l-.06-.15s0-.1-.05-.15h0c0-.11-.09-.22-.13-.32l-.06-.19c-.05-.11-.09-.22-.13-.33h0l0-.08c-.23-.62-.44-1.21-.61-1.77,0,0,0,0,0,0s-.06-.2-.1-.3c-.2-.65-.37-1.27-.5-1.85,0-.11,0-.22-.07-.33-.07-.31-.13-.6-.17-.89h0c0-.21-.07-.41-.1-.61a1.1,1.1,0,0,0,0-.18c0-.06,0-.12,0-.18a1.84,1.84,0,0,1,0-.33,1,1,0,0,0,0-.17c0-.05,0-.11,0-.16s0-.31,0-.46a8.91,8.91,0,0,1,.07-1.08c0-.12,0-.24.06-.34a3.51,3.51,0,0,1,.91-1.86l.07-.06h0a1.84,1.84,0,0,1,.49-.35h0l.17-.08s0,0,0,0l.19-.08.1,0h.05a3.56,3.56,0,0,1,.47-.1,4.32,4.32,0,0,1,.73,0H253a8,8,0,0,1,2,.49s0,0,0,0a11.88,11.88,0,0,1,1.77.82,29.87,29.87,0,0,1,5.29,3.73c1.7,1.45,3.55,3.18,5.47,5C269.87,189.18,272.3,191.68,274.66,194.15Z" style="fill:#00CC99"></path><path d="M271.46,196.6c-.5.35-1,.69-1.54,1l-.1.06c-.49.31-1,.6-1.51.88l-.67.37A35.86,35.86,0,0,1,263,201q-.56.21-1.14.39c-.89.29-1.81.55-2.74.78l-.75.17-.66.14c-.16-.3-.31-.6-.46-.9-.05-.1-.1-.2-.16-.3h0s0,0,0,0h0l-.43-.87c-.16-.33-.33-.65-.49-1-.05-.11-.1-.22-.16-.33-.3-.62-.6-1.23-.88-1.83h0l-.15-.33,0,0-.79-1.67-.07-.15-.15-.33c-.29-.63-.57-1.24-.83-1.83l-.15-.33-.3-.67-.5-1.17c0-.11-.09-.23-.14-.34-.15-.36-.29-.7-.42-1l-.06-.15a.47.47,0,0,1-.06-.15c0-.11-.09-.22-.13-.32l-.07-.18c0-.12-.09-.23-.13-.34l0-.08c-.23-.62-.44-1.21-.61-1.77,0,0,0,0,0,0a1.71,1.71,0,0,1-.09-.3h0c-.2-.65-.37-1.27-.5-1.85,0-.11,0-.22-.07-.33-.07-.31-.13-.6-.17-.89h0c0-.21-.07-.41-.1-.61a1.1,1.1,0,0,0,0-.18,1.1,1.1,0,0,1,0-.18l0-.33a1,1,0,0,1,0-.17c0-.05,0-.11,0-.16s0-.31,0-.46a8.91,8.91,0,0,1,.07-1.08c0-.12,0-.24.06-.34a3.51,3.51,0,0,1,.91-1.86l.07-.06h0a2.43,2.43,0,0,1,.49-.35h0l.17-.08s0,0,0,0l.25-.09,0,0h.05a3.56,3.56,0,0,1,.47-.1,4.32,4.32,0,0,1,.73,0l.15.16.11.11.31.33,1.7,1.81.32.33,1.29,1.37h0l.4.41.31.33,1.71,1.81.3.32,1.7,1.8.31.33,1.19,1.25,2.1,2.23Z" style="opacity:0.1"></path><path d="M269.82,197.67c-.49.31-1,.6-1.51.88l-.67.37A35.86,35.86,0,0,1,263,201q-.56.21-1.14.39c-.89.29-1.81.55-2.74.78l-.75.17-.66.14a37.3,37.3,0,0,1-16.24-.25l-1.14-.29c-.48-.13-.95-.27-1.42-.42a1.4,1.4,0,0,1-.29-.09l-.24-.08a.11.11,0,0,1-.08,0c-1-.31-1.9-.67-2.82-1.06l-.72-.32a35.43,35.43,0,0,1-3.36-1.72l-.52-.31-.5-.3c-.58-.36-1.14-.73-1.7-1.12l.15-.39c.05-.11.09-.22.14-.34.25-.64.51-1.28.77-1.9a3.45,3.45,0,0,1,.14-.34h0c.26-.65.54-1.29.82-1.91.05-.12.1-.23.16-.35.29-.65.59-1.29.89-1.9a3.78,3.78,0,0,1,.17-.35l.42-.83c.19-.37.38-.74.57-1.09h0a.36.36,0,0,1,0-.09.41.41,0,0,1,.05-.09l.1-.17c.35-.66.72-1.3,1.09-1.9a3.37,3.37,0,0,1,.22-.35c.42-.69.85-1.33,1.29-1.94a2.7,2.7,0,0,1,.25-.34l0,0h0c.29-.39.59-.77.9-1.12a5.2,5.2,0,0,1,.38-.44,3.4,3.4,0,0,1,.32-.34l.17-.18.17-.17a15.53,15.53,0,0,1,2.06-1.8,1.44,1.44,0,0,1,.25-.18,1.51,1.51,0,0,1,.26-.18l.27-.17h0a12.49,12.49,0,0,1,5.63-2.06A11.73,11.73,0,0,1,253,176.8c.15.08.3.15.44.24a2,2,0,0,1,.25.14l.06,0h0a1.64,1.64,0,0,1,.22.14h0a13.62,13.62,0,0,1,1.54,1.11,6.52,6.52,0,0,1,.65.68l.14.16.14.16h0c.42.47.91,1.06,1.5,1.79l.12.15h0l.13.17h0l1.44,1.82.25.32c.45.58.91,1.18,1.39,1.82h0a1.36,1.36,0,0,0,.12.17l.12.16c.32.41.63.83,1,1.26l.41.56c.07.11.16.22.24.33.33.44.65.88,1,1.33l.35.48.14.19c.47.65.93,1.3,1.4,2a1.27,1.27,0,0,0,.13.19l.09.13h0c.45.66.91,1.32,1.35,2s.9,1.34,1.32,2l.11.16.1.17C269.4,197,269.61,197.34,269.82,197.67Z" style="fill:#00CC99"></path><path d="M248,179.49l-.42,0c0,.11,0,.22,0,.34l.43,0,1.47-.06c0-.12,0-.24.06-.34Zm1.42,2.15-1.07,0q.14.16.3.33l.8,0ZM248,179.49l-.42,0c0,.11,0,.22,0,.34l.43,0,1.47-.06c0-.12,0-.24.06-.34Zm0,0-.42,0c0,.11,0,.22,0,.34l.43,0,1.47-.06c0-.12,0-.24.06-.34Zm0,0-.42,0c0,.11,0,.22,0,.34l.43,0,1.47-.06c0-.12,0-.24.06-.34Zm5.79-2.27h0l-.06,0-.23-.14H253l-2,.08h0l-3.3.14h-.44l-1.25.06-4.61.19-.59,0h-.07l-.27.17a1.51,1.51,0,0,0-.26.18h0l.6,0,5.12-.21,1.43-.06h.43l2.68-.11h.12l2.71-.11.68,0A1.64,1.64,0,0,0,253.78,177.22Zm-6.21,2.29c0,.11,0,.22,0,.34l.43,0,1.47-.06c0-.12,0-.24.06-.34l-1.52.06Zm.42,0-.42,0c0,.11,0,.22,0,.34l.43,0,1.47-.06c0-.12,0-.24.06-.34Zm0,0-.42,0c0,.11,0,.22,0,.34l.43,0,1.47-.06c0-.12,0-.24.06-.34Zm0,0-.42,0c0,.11,0,.22,0,.34l.43,0,1.47-.06c0-.12,0-.24.06-.34Zm1.42,2.15-1.07,0q.14.16.3.33l.8,0Zm6.93-2.33-.14-.16-1.18,0-5,.21-.47,0-1.52.06-.42,0-.86,0h0l-8.53.36h-.28l-.17.17-.17.18h.2l9.18-.38.62,0,.43,0,1.47-.06.51,0,5.38-.22,1.14-.05h0ZM246.62,184l-8.82.37c0,.11,0,.22,0,.34l8.66-.37.64,0c0-.11.06-.23.1-.34Zm0,0-8.82.37c0,.11,0,.22,0,.34l8.66-.37.64,0c0-.11.06-.23.1-.34Zm0,0-8.82.37c0,.11,0,.22,0,.34l8.66-.37.64,0c0-.11.06-.23.1-.34Zm0,0-8.82.37c0,.11,0,.22,0,.34l8.66-.37.64,0c0-.11.06-.23.1-.34Zm11.5-2.53h0l-.11-.15h0l-1,0-.37,0-6.59.27-.65,0h0l-1.07,0-.59,0-.51,0-9.77.41-1.53.06h0a2.7,2.7,0,0,0-.25.34h.18l1.67-.07,9.65-.39.52,0,.95,0,.8,0h0l.67,0,6.54-.27.68,0,.91,0h0A1.15,1.15,0,0,1,258.12,181.44Zm-20.32,2.9c0,.11,0,.22,0,.34l8.66-.37.64,0c0-.11.06-.23.1-.34l-.63,0Zm8.82-.37-8.82.37c0,.11,0,.22,0,.34l8.66-.37.64,0c0-.11.06-.23.1-.34Zm0,0-8.82.37c0,.11,0,.22,0,.34l8.66-.37.64,0c0-.11.06-.23.1-.34Zm0,0-8.82.37c0,.11,0,.22,0,.34l8.66-.37.64,0c0-.11.06-.23.1-.34Zm13.08-.54-.65,0-2.48.1-6,.25h-.14l-.72,0-2.5.11-.63,0-8.82.37-2.33.09-1.09,0a3.37,3.37,0,0,0-.22.35l1.25-.05,2.44-.1,8.66-.37.64,0,2.67-.12.73,0,.49,0h0l5.46-.23,2.84-.11.6,0h0A4,4,0,0,1,259.7,183.43Zm1.77,2.31a1.36,1.36,0,0,1-.12-.17h-.3L251,186l-.71,0h0l-3.76.16-.75,0-7.68.31-2.95.12-2.11.09h0a1.3,1.3,0,0,0-.08.17,421377227624.49,421377227624.49,0,0,0-.1.18h0l2.27-.09,3-.13,7.5-.31.75,0,4-.16.7,0,10.22-.42h.23Zm1.49,2-11.22.46-.65,0h0l-5.42.22-.8,0-4.11.17h-.06l-8.81.36a3.78,3.78,0,0,0-.17.35l13-.54h0l.78,0,5.7-.23h0l.64,0,11.34-.47C263.12,187.94,263,187.83,263,187.72Zm1.7,2.33-.14-.19-12,.49-.58,0-7.36.3-.76,0-13,.54c-.06.12-.11.23-.16.35l13-.53.75,0,7.68-.32h0l.57,0,12.08-.5Zm1.53,2.16a1.27,1.27,0,0,1-.13-.19l-12.64.52-.53,0-9.46.39h-.09l-.61,0-12.89.53h0a3.45,3.45,0,0,0-.14.34l12.88-.53.57,0h.12l9.78-.4.52,0,12.72-.53h0A.64.64,0,0,1,266.19,192.21Zm1.45,2.11-.12-.16-13.12.54-.53,0-11.58.48H242l-.43,0-12.69.52c0,.12-.09.23-.14.34l12.65-.52.4,0h.28l11.91-.49h0l.53,0,13.18-.54Zm1.43,2.16-.11-.16-13.49.56-.57,0h0l-13.19.55h-1.29l-9.58.4.52.31,8.87-.37h1.15l13.68-.57h0l.58,0,13.53-.56Zm-14.17.42h0l-13.19.55h-.82l-.2.34h.69l13.68-.57Zm1.67,2.13-.62,0h0l-16.05.66h-.73l-4.45.18.72.32,3.53-.15h.39l.34,0,16.41-.68h0l.64,0,10.89-.45.67-.37Zm-15.49-1.22h.29l13.68-.57-.15-.33h0l-13.19.55h-.82l-.2.34h.4Zm13.82-.91h0l-13.19.55h-.82l-.2.34h.69l13.68-.57Zm2.82,4.3-.69,0h0l-16.74.7,1.14.29,15.77-.65h0l.7,0,3.91-.16q.58-.18,1.14-.39Zm-1.78-2.14-16.05.66c-.07.12-.13.24-.2.35l16.41-.68C256.05,199.28,256,199.17,255.94,199.06Zm1.78,2.14-.69,0h0l-16.74.7,1.14.29,15.77-.65h0l.7,0A2.79,2.79,0,0,1,257.72,201.2Zm-1.78-2.14-16.05.66c-.07.12-.13.24-.2.35l16.41-.68C256.05,199.28,256,199.17,255.94,199.06Zm1.78,2.14-.69,0h0l-16.74.7,1.14.29,15.77-.65h0l.7,0A2.79,2.79,0,0,1,257.72,201.2Z" style="opacity:0.1"></path><path d="M247.57,179.51c0,.11,0,.22,0,.34a7,7,0,0,1-.1.75,11,11,0,0,1-.21,1.13c0,.11-.05.22-.07.34-.15.59-.33,1.22-.55,1.9,0,.11-.07.22-.11.34-.2.6-.43,1.23-.7,1.9l-.13.34c-.25.61-.52,1.25-.82,1.92l-.15.34,0,.07c-.28.63-.57,1.24-.85,1.83-.05.12-.11.24-.17.36-.31.66-.61,1.29-.93,1.91a2.6,2.6,0,0,1-.16.34c-.32.66-.64,1.3-1,1.91l-.18.34c-.34.67-.69,1.31-1,1.93a3.72,3.72,0,0,1-.19.34c-.36.67-.71,1.31-1.06,1.91l-.2.35c-.24.42-.47.82-.71,1.21-1-.31-1.9-.67-2.82-1.06l-.72-.32a35.43,35.43,0,0,1-3.36-1.72l-.52-.31-.5-.3c-.58-.36-1.14-.73-1.7-1.12a34,34,0,0,1-3.67-2.91c1.65-1.93,3.33-3.81,5-5.62s3.61-3.79,5.39-5.52l.7-.66c.27-.26.53-.5.79-.73l.39-.35.51-.44.42-.35a29.31,29.31,0,0,1,2.66-2l.56-.35c2.1-1.28,3.76-1.72,4.83-1.29a1.88,1.88,0,0,1,1,1,1.62,1.62,0,0,1,.13.33A5.31,5.31,0,0,1,247.57,179.51Z" style="fill: rgb(247, 169, 160);"></path><path d="M248,179.49c0,.11,0,.23,0,.34a11.33,11.33,0,0,1-.13,1.28c0,.2-.06.4-.1.6l-.06.34c-.13.65-.28,1.3-.44,1.9,0,.11-.07.23-.1.34-.21.74-.42,1.4-.59,1.89-.05.12-.09.24-.13.34s-.14.41-.18.51c-.16.42-.35.89-.59,1.4,0,.11-.1.23-.15.35l0,.06c-.26.58-.56,1.19-.89,1.84l-.18.36c-.29.57-.6,1.16-.92,1.77a.64.64,0,0,0-.08.14,3.72,3.72,0,0,0-.19.34l-1.05,1.91-.19.35-1.1,1.93-.2.34c-.37.65-.75,1.29-1.12,1.91l-.21.36c-.27.45-.53.9-.78,1.33l-.24-.08a.11.11,0,0,1-.08,0c-1-.31-1.9-.67-2.82-1.06l-.72-.32a35.43,35.43,0,0,1-3.36-1.72l-.52-.31-.5-.3c-.58-.36-1.14-.73-1.7-1.12a34,34,0,0,1-3.67-2.91c-.24-.2-.47-.42-.7-.64,1.58-1.86,3.17-3.63,4.73-5.28a76.58,76.58,0,0,1,7.45-7l.69-.54c.52-.4,1-.77,1.51-1.11s.89-.61,1.31-.86l.28-.18.57-.35c2.64-1.55,4.37-2,5.48-1.64a2.07,2.07,0,0,1,1.41,1.35c.05.11.08.22.12.33A6.16,6.16,0,0,1,248,179.49Z" style="fill:#00CC99"></path><path d="M243.49,192.81v0l-.06.12c-.06.11-.11.23-.17.34-.32.64-.64,1.28-1,1.91a3.65,3.65,0,0,1-.18.34c-.32.65-.66,1.29-1,1.93l-.18.34-.19.36.34-.36a3.49,3.49,0,0,0,.32-.35l.12-.13c.46-.52.89-1.07,1.31-1.62a0,0,0,0,1,.06,0,9.45,9.45,0,0,1-1.19,1.7l0,.05-.29.3c-.27.28-.56.54-.86.8s-.41.75-.62,1.12c-.07.12-.13.24-.2.35l-.39.67c-.15.26-.3.51-.44.77a1.4,1.4,0,0,1-.29-.09l-.24-.08c.17-.26.33-.53.49-.8l.27-.44.21-.36c.39-.63.77-1.27,1.16-1.91l.21-.34c.39-.64.78-1.29,1.16-1.94l.21-.34c.37-.63.74-1.27,1.1-1.91.07-.11.13-.23.2-.35l.09-.16A0,0,0,0,1,243.49,192.81Z" style="fill:#263238"></path><path d="M245.93,178c0,1,4.42,7.62,9.15,7.62,2.47,0,1.33-6.61,1.33-6.61l.23-.54,3.2-7.55-8.17-7.63-1.19-1s-.74,2.12-1.64,4.78l-.12.37c-.06.15-.11.29-.16.43-.13.4-.27.8-.41,1.21s-.2.6-.29.93l-.3,1A51.42,51.42,0,0,0,245.93,178Z" style="fill: rgb(247, 169, 160);"></path><path d="M248.84,167a16.43,16.43,0,0,0,7.8,11.43l3.2-7.55-8.17-7.63-1.19-1S249.74,164.33,248.84,167Z" style="fill:#263238"></path><path d="M270.48,156c2.63,14.16-5.55,17.34-8.61,17.9-2.77.51-12.28,1.9-16.36-11.91s1.67-19.51,8-21S267.85,141.82,270.48,156Z" style="fill: rgb(247, 169, 160);"></path><path d="M265.67,153.43c-.33,0-.65,0-1,0a1.56,1.56,0,0,1-1-.17.51.51,0,0,1-.15-.6,1.27,1.27,0,0,1,1.15-.58,1.89,1.89,0,0,1,1.3.36A.55.55,0,0,1,265.67,153.43Z" style="fill:#263238"></path><path d="M256.34,155.76c.31-.12.59-.28.89-.43a1.58,1.58,0,0,0,.84-.61.51.51,0,0,0-.15-.61,1.27,1.27,0,0,0-1.29,0,1.89,1.89,0,0,0-1,.91A.55.55,0,0,0,256.34,155.76Z" style="fill:#263238"></path><path d="M259.19,158.82s-.06.06-.05.1c.28.94.44,2.06-.33,2.61,0,0,0,.06,0,.05C259.84,161.15,259.6,159.66,259.19,158.82Z" style="fill:#263238"></path><path d="M258.08,158.05c-1.56.29-.87,3.38.57,3.11S259.38,157.81,258.08,158.05Z" style="fill:#263238"></path><path d="M257.51,158.35c-.23.23-.43.6-.75.71s-.72-.14-1-.4c0,0-.05,0,0,.05.12.59.49,1.15,1.14,1.1s.9-.67.91-1.3C257.73,158.4,257.6,158.25,257.51,158.35Z" style="fill:#263238"></path><path d="M264.66,157.37s.09,0,.1.07c.17,1,.54,2,1.47,2.17a0,0,0,0,1,0,.06C265.14,159.74,264.68,158.31,264.66,157.37Z" style="fill:#263238"></path><path d="M265.3,156.18c1.52-.45,2.31,2.62.9,3S264,156.56,265.3,156.18Z" style="fill:#263238"></path><path d="M266,156.22c.28.1.6.33.89.28s.5-.46.64-.83c0,0,0,0,.05,0,.17.58.13,1.24-.4,1.5s-1-.17-1.29-.72C265.84,156.37,265.88,156.18,266,156.22Z" style="fill:#263238"></path><path d="M261.23,166.31c.27.18.56.45.92.42a2.49,2.49,0,0,0,1-.43s.07,0,.05,0a1.32,1.32,0,0,1-1.13.74,1,1,0,0,1-.91-.72C261.12,166.31,261.19,166.28,261.23,166.31Z" style="fill:#263238"></path><path d="M264.41,161.91s.53,1.38.69,2.06c0,.06-.14.13-.36.19,0,0,0,0,0,0a3.28,3.28,0,0,1-3.39-.46.07.07,0,0,1,.08-.12,5,5,0,0,0,3.12.15c0-.2-1-2.33-.89-2.36a6.13,6.13,0,0,1,1.61,0c-1-2.9-2.51-5.62-3.49-8.53,0-.11.11-.17.16-.09a50.09,50.09,0,0,1,4.16,9C266.21,162.14,264.71,162,264.41,161.91Z" style="fill:#263238"></path><path d="M264.2,163.91a3.54,3.54,0,0,1-1.07,1.44,1.59,1.59,0,0,1-.91.32c-.72,0-.91-.6-.94-1.17a3.73,3.73,0,0,1,.08-.89A4.52,4.52,0,0,0,264.2,163.91Z" style="fill:#263238"></path><path d="M263.13,165.35a1.59,1.59,0,0,1-.91.32c-.72,0-.91-.6-.94-1.17A1.66,1.66,0,0,1,263.13,165.35Z" style="fill:#ff9cbd"></path><path d="M246.49,162.4c2.73,0,2.6-6.26,2.6-6.26s11.19-3.45,10.93-12.89a15.94,15.94,0,0,0,9.09,7.57s-1.75-10.16-10.11-11.07c0,0-10.53-2.33-15.12,6.39S244.66,162.41,246.49,162.4Z" style="fill:#263238"></path><path d="M260,142.55a10.31,10.31,0,0,1,0,4.32,10.57,10.57,0,0,1-1.66,4,9.56,9.56,0,0,1-.67.87l-.35.43-.39.39c-.27.25-.53.51-.81.74l-.89.65-.44.31-.48.26-1,.52c-.66.28-1.34.53-2,.77.62-.38,1.27-.68,1.87-1.05l.89-.59.44-.29.41-.34c.26-.23.53-.45.81-.67s.49-.5.73-.74l.37-.38.32-.41a7.36,7.36,0,0,0,.63-.84,12.26,12.26,0,0,0,1.71-3.79,12.1,12.1,0,0,0,.38-2.08A12.58,12.58,0,0,0,260,142.55Z" style="fill:#263238"></path><path d="M247.94,161.65s-3.57-4.17-5.49-2.86,1.06,7.57,3.53,8.23a2.44,2.44,0,0,0,3.12-1.62Z" style="fill: rgb(247, 169, 160);"></path><path d="M243.35,160.57a0,0,0,0,0,0,.06,6.13,6.13,0,0,1,3.54,3.53,1.34,1.34,0,0,0-2-.18.05.05,0,0,0,.05.09,1.5,1.5,0,0,1,1.69.36,7.45,7.45,0,0,1,.92,1.25c.09.14.35,0,.28-.13l0,0C247.61,163.38,245.66,160.56,243.35,160.57Z" style="fill:#263238"></path><path d="M245.85,144.11c-.53,1.34-8.13,2.49-11.64-2.55s.72-11.35,6.87-8.56C245,134.76,247,141.26,245.85,144.11Z" style="fill:#263238"></path><path d="M233.89,134.59a8.49,8.49,0,0,1,4.85-2.78,5.09,5.09,0,0,1,4.85,1.6,10.3,10.3,0,0,1,2.33,5,15.82,15.82,0,0,1,.3,2.84,8,8,0,0,1-.37,2.87,7.06,7.06,0,0,0,.9-2.84,13.09,13.09,0,0,0,0-3,10,10,0,0,0-2.36-5.59,5.71,5.71,0,0,0-5.83-1.69A7.49,7.49,0,0,0,233.89,134.59Z" style="fill:#263238"></path></g></svg>